<mxfile host="app.diagrams.net" agent="Mozilla/5.0 (Windows NT 10.0; Win64; x64; rv:141.0) Gecko/20100101 Firefox/141.0" version="28.0.7">
  <diagram name="Страница — 1" id="TMZbmXtrppi8kLyoqYWA">
    <mxGraphModel dx="1042" dy="659" grid="1" gridSize="10" guides="1" tooltips="1" connect="1" arrows="1" fold="1" page="1" pageScale="1" pageWidth="827" pageHeight="1169" math="0" shadow="0">
      <root>
        <mxCell id="0" />
        <mxCell id="1" parent="0" />
        <mxCell id="CB3DuxHhB2KaNCTFFxKB-54" value="" style="rounded=0;whiteSpace=wrap;html=1;fillColor=none;dashed=1;dashPattern=8 8;" parent="1" vertex="1">
          <mxGeometry x="60" y="250" width="490" height="300" as="geometry" />
        </mxCell>
        <mxCell id="CB3DuxHhB2KaNCTFFxKB-1" value="«Страница сайта»&lt;br&gt;&lt;b&gt;App.vue&lt;/b&gt;" style="html=1;dropTarget=0;whiteSpace=wrap;fillColor=#d5e8d4;strokeColor=#82b366;" parent="1" vertex="1">
          <mxGeometry x="210" y="30" width="180" height="70" as="geometry" />
        </mxCell>
        <mxCell id="CB3DuxHhB2KaNCTFFxKB-2" value="main.js" style="shape=module;jettyWidth=8;jettyHeight=4;fillColor=#fff2cc;strokeColor=#d6b656;" parent="CB3DuxHhB2KaNCTFFxKB-1" vertex="1">
          <mxGeometry x="1" width="79" height="20" relative="1" as="geometry">
            <mxPoint x="-27" y="7" as="offset" />
          </mxGeometry>
        </mxCell>
        <mxCell id="CB3DuxHhB2KaNCTFFxKB-30" style="edgeStyle=orthogonalEdgeStyle;rounded=0;orthogonalLoop=1;jettySize=auto;html=1;exitX=0.5;exitY=0;exitDx=0;exitDy=0;entryX=0.5;entryY=1;entryDx=0;entryDy=0;" parent="1" source="CB3DuxHhB2KaNCTFFxKB-3" target="CB3DuxHhB2KaNCTFFxKB-1" edge="1">
          <mxGeometry relative="1" as="geometry" />
        </mxCell>
        <mxCell id="CB3DuxHhB2KaNCTFFxKB-3" value="«Роутер»&lt;br&gt;&lt;b&gt;RouterLink&lt;/b&gt;" style="html=1;dropTarget=0;whiteSpace=wrap;" parent="1" vertex="1">
          <mxGeometry x="240" y="140" width="120" height="60" as="geometry" />
        </mxCell>
        <mxCell id="CB3DuxHhB2KaNCTFFxKB-4" value="" style="shape=module;jettyWidth=8;jettyHeight=4;" parent="CB3DuxHhB2KaNCTFFxKB-3" vertex="1">
          <mxGeometry x="1" width="20" height="20" relative="1" as="geometry">
            <mxPoint x="-27" y="7" as="offset" />
          </mxGeometry>
        </mxCell>
        <mxCell id="qRULUB48sCRfikNsVOeV-1" style="rounded=0;orthogonalLoop=1;jettySize=auto;html=1;exitX=1;exitY=0;exitDx=0;exitDy=0;entryX=0.25;entryY=1;entryDx=0;entryDy=0;" edge="1" parent="1" source="CB3DuxHhB2KaNCTFFxKB-5" target="CB3DuxHhB2KaNCTFFxKB-1">
          <mxGeometry relative="1" as="geometry" />
        </mxCell>
        <mxCell id="CB3DuxHhB2KaNCTFFxKB-5" value="«Информационная панель»&lt;br&gt;&lt;b&gt;Footer.vue&lt;/b&gt;" style="html=1;dropTarget=0;whiteSpace=wrap;" parent="1" vertex="1">
          <mxGeometry x="40" y="140" width="160" height="80" as="geometry" />
        </mxCell>
        <mxCell id="CB3DuxHhB2KaNCTFFxKB-6" value="" style="shape=module;jettyWidth=8;jettyHeight=4;" parent="CB3DuxHhB2KaNCTFFxKB-5" vertex="1">
          <mxGeometry x="1" width="20" height="20" relative="1" as="geometry">
            <mxPoint x="-27" y="7" as="offset" />
          </mxGeometry>
        </mxCell>
        <mxCell id="qRULUB48sCRfikNsVOeV-2" style="rounded=0;orthogonalLoop=1;jettySize=auto;html=1;exitX=0;exitY=0;exitDx=0;exitDy=0;entryX=0.75;entryY=1;entryDx=0;entryDy=0;" edge="1" parent="1" source="CB3DuxHhB2KaNCTFFxKB-7" target="CB3DuxHhB2KaNCTFFxKB-1">
          <mxGeometry relative="1" as="geometry" />
        </mxCell>
        <mxCell id="CB3DuxHhB2KaNCTFFxKB-7" value="«Навигационная панель»&lt;br&gt;&lt;b&gt;NavBar.vue&lt;/b&gt;" style="html=1;dropTarget=0;whiteSpace=wrap;" parent="1" vertex="1">
          <mxGeometry x="400" y="140" width="160" height="80" as="geometry" />
        </mxCell>
        <mxCell id="CB3DuxHhB2KaNCTFFxKB-8" value="" style="shape=module;jettyWidth=8;jettyHeight=4;" parent="CB3DuxHhB2KaNCTFFxKB-7" vertex="1">
          <mxGeometry x="1" width="20" height="20" relative="1" as="geometry">
            <mxPoint x="-27" y="7" as="offset" />
          </mxGeometry>
        </mxCell>
        <mxCell id="CB3DuxHhB2KaNCTFFxKB-35" style="edgeStyle=orthogonalEdgeStyle;rounded=0;orthogonalLoop=1;jettySize=auto;html=1;exitX=0.5;exitY=0;exitDx=0;exitDy=0;entryX=0.5;entryY=1;entryDx=0;entryDy=0;" parent="1" source="CB3DuxHhB2KaNCTFFxKB-9" target="CB3DuxHhB2KaNCTFFxKB-3" edge="1">
          <mxGeometry relative="1" as="geometry" />
        </mxCell>
        <mxCell id="CB3DuxHhB2KaNCTFFxKB-9" value="«Статистика»&lt;br&gt;&lt;b&gt;Statistic.vue&lt;/b&gt;" style="html=1;dropTarget=0;whiteSpace=wrap;" parent="1" vertex="1">
          <mxGeometry x="240" y="280" width="120" height="60" as="geometry" />
        </mxCell>
        <mxCell id="CB3DuxHhB2KaNCTFFxKB-10" value="" style="shape=module;jettyWidth=8;jettyHeight=4;" parent="CB3DuxHhB2KaNCTFFxKB-9" vertex="1">
          <mxGeometry x="1" width="20" height="20" relative="1" as="geometry">
            <mxPoint x="-27" y="7" as="offset" />
          </mxGeometry>
        </mxCell>
        <mxCell id="CB3DuxHhB2KaNCTFFxKB-34" style="rounded=0;orthogonalLoop=1;jettySize=auto;html=1;exitX=0;exitY=0;exitDx=0;exitDy=0;entryX=0.75;entryY=1;entryDx=0;entryDy=0;" parent="1" source="CB3DuxHhB2KaNCTFFxKB-11" target="CB3DuxHhB2KaNCTFFxKB-3" edge="1">
          <mxGeometry relative="1" as="geometry" />
        </mxCell>
        <mxCell id="CB3DuxHhB2KaNCTFFxKB-11" value="«Карта»&lt;br&gt;&lt;b&gt;Map.vue&lt;/b&gt;" style="html=1;dropTarget=0;whiteSpace=wrap;" parent="1" vertex="1">
          <mxGeometry x="400" y="280" width="120" height="60" as="geometry" />
        </mxCell>
        <mxCell id="CB3DuxHhB2KaNCTFFxKB-12" value="" style="shape=module;jettyWidth=8;jettyHeight=4;" parent="CB3DuxHhB2KaNCTFFxKB-11" vertex="1">
          <mxGeometry x="1" width="20" height="20" relative="1" as="geometry">
            <mxPoint x="-27" y="7" as="offset" />
          </mxGeometry>
        </mxCell>
        <mxCell id="CB3DuxHhB2KaNCTFFxKB-33" style="rounded=0;orthogonalLoop=1;jettySize=auto;html=1;exitX=1;exitY=0;exitDx=0;exitDy=0;entryX=0.25;entryY=1;entryDx=0;entryDy=0;" parent="1" source="CB3DuxHhB2KaNCTFFxKB-13" target="CB3DuxHhB2KaNCTFFxKB-3" edge="1">
          <mxGeometry relative="1" as="geometry" />
        </mxCell>
        <mxCell id="CB3DuxHhB2KaNCTFFxKB-13" value="«Главная»&lt;br&gt;&lt;b&gt;Dashboard.vue&lt;/b&gt;" style="html=1;dropTarget=0;whiteSpace=wrap;" parent="1" vertex="1">
          <mxGeometry x="80" y="280" width="120" height="60" as="geometry" />
        </mxCell>
        <mxCell id="CB3DuxHhB2KaNCTFFxKB-14" value="" style="shape=module;jettyWidth=8;jettyHeight=4;" parent="CB3DuxHhB2KaNCTFFxKB-13" vertex="1">
          <mxGeometry x="1" width="20" height="20" relative="1" as="geometry">
            <mxPoint x="-27" y="7" as="offset" />
          </mxGeometry>
        </mxCell>
        <mxCell id="CB3DuxHhB2KaNCTFFxKB-40" style="edgeStyle=orthogonalEdgeStyle;rounded=0;orthogonalLoop=1;jettySize=auto;html=1;exitX=0;exitY=0.5;exitDx=0;exitDy=0;" parent="1" source="CB3DuxHhB2KaNCTFFxKB-15" edge="1">
          <mxGeometry relative="1" as="geometry">
            <mxPoint x="140" y="340" as="targetPoint" />
          </mxGeometry>
        </mxCell>
        <mxCell id="CB3DuxHhB2KaNCTFFxKB-42" style="edgeStyle=orthogonalEdgeStyle;rounded=0;orthogonalLoop=1;jettySize=auto;html=1;exitX=1;exitY=0.5;exitDx=0;exitDy=0;entryX=0.5;entryY=1;entryDx=0;entryDy=0;" parent="1" source="CB3DuxHhB2KaNCTFFxKB-15" target="CB3DuxHhB2KaNCTFFxKB-9" edge="1">
          <mxGeometry relative="1" as="geometry" />
        </mxCell>
        <mxCell id="CB3DuxHhB2KaNCTFFxKB-15" value="«График»&lt;br&gt;&lt;b&gt;LineChart.vue&lt;/b&gt;" style="html=1;dropTarget=0;whiteSpace=wrap;" parent="1" vertex="1">
          <mxGeometry x="160" y="380" width="120" height="50" as="geometry" />
        </mxCell>
        <mxCell id="CB3DuxHhB2KaNCTFFxKB-16" value="ApexChart" style="shape=module;jettyWidth=8;jettyHeight=4;direction=south;fillColor=#dae8fc;strokeColor=#6c8ebf;" parent="CB3DuxHhB2KaNCTFFxKB-15" vertex="1">
          <mxGeometry x="1" width="79" height="30" relative="1" as="geometry">
            <mxPoint x="-140" y="40" as="offset" />
          </mxGeometry>
        </mxCell>
        <mxCell id="CB3DuxHhB2KaNCTFFxKB-39" style="edgeStyle=orthogonalEdgeStyle;rounded=0;orthogonalLoop=1;jettySize=auto;html=1;exitX=1;exitY=0.5;exitDx=0;exitDy=0;entryX=0.5;entryY=1;entryDx=0;entryDy=0;" parent="1" source="CB3DuxHhB2KaNCTFFxKB-21" target="CB3DuxHhB2KaNCTFFxKB-11" edge="1">
          <mxGeometry relative="1" as="geometry" />
        </mxCell>
        <mxCell id="CB3DuxHhB2KaNCTFFxKB-59" style="edgeStyle=orthogonalEdgeStyle;rounded=0;orthogonalLoop=1;jettySize=auto;html=1;exitX=0.75;exitY=0;exitDx=0;exitDy=0;entryX=0.75;entryY=1;entryDx=0;entryDy=0;" parent="1" source="CB3DuxHhB2KaNCTFFxKB-21" target="CB3DuxHhB2KaNCTFFxKB-9" edge="1">
          <mxGeometry relative="1" as="geometry" />
        </mxCell>
        <mxCell id="CB3DuxHhB2KaNCTFFxKB-60" style="edgeStyle=orthogonalEdgeStyle;rounded=0;orthogonalLoop=1;jettySize=auto;html=1;exitX=0;exitY=0.5;exitDx=0;exitDy=0;entryX=0.25;entryY=1;entryDx=0;entryDy=0;" parent="1" source="CB3DuxHhB2KaNCTFFxKB-21" target="CB3DuxHhB2KaNCTFFxKB-13" edge="1">
          <mxGeometry relative="1" as="geometry" />
        </mxCell>
        <mxCell id="CB3DuxHhB2KaNCTFFxKB-21" value="«Статистический контейнер»&lt;br&gt;&lt;div&gt;&lt;b&gt;StatItem.vue&lt;/b&gt;&lt;/div&gt;&lt;div&gt;&lt;b&gt;StatCard.vue&lt;/b&gt;&lt;/div&gt;" style="html=1;dropTarget=0;whiteSpace=wrap;" parent="1" vertex="1">
          <mxGeometry x="240" y="450" width="120" height="80" as="geometry" />
        </mxCell>
        <mxCell id="CB3DuxHhB2KaNCTFFxKB-22" value="Leaflet" style="shape=module;jettyWidth=8;jettyHeight=4;direction=south;fillColor=#dae8fc;strokeColor=#6c8ebf;" parent="CB3DuxHhB2KaNCTFFxKB-21" vertex="1">
          <mxGeometry x="1" width="79" height="30" relative="1" as="geometry">
            <mxPoint x="10" y="-120" as="offset" />
          </mxGeometry>
        </mxCell>
        <mxCell id="qRULUB48sCRfikNsVOeV-4" style="edgeStyle=orthogonalEdgeStyle;rounded=0;orthogonalLoop=1;jettySize=auto;html=1;exitX=0.5;exitY=1;exitDx=0;exitDy=0;entryX=1;entryY=0.5;entryDx=0;entryDy=0;" edge="1" parent="1" source="CB3DuxHhB2KaNCTFFxKB-23" target="CB3DuxHhB2KaNCTFFxKB-7">
          <mxGeometry relative="1" as="geometry" />
        </mxCell>
        <mxCell id="CB3DuxHhB2KaNCTFFxKB-23" value="«Смена темы»&lt;br&gt;&lt;b&gt;ThemeButton.vue&lt;/b&gt;" style="html=1;dropTarget=0;whiteSpace=wrap;" parent="1" vertex="1">
          <mxGeometry x="510" y="40" width="140" height="70" as="geometry" />
        </mxCell>
        <mxCell id="CB3DuxHhB2KaNCTFFxKB-51" value="&lt;div&gt;stores/theme.js&lt;/div&gt;&lt;div&gt;stores/mobile.js&lt;/div&gt;" style="shape=module;align=center;spacingLeft=20;align=center;verticalAlign=middle;whiteSpace=wrap;html=1;jettyWidth=19;jettyHeight=6;fillColor=#fff2cc;strokeColor=#d6b656;" parent="1" vertex="1">
          <mxGeometry x="630" y="50" width="120" height="30" as="geometry" />
        </mxCell>
        <mxCell id="VUbbE_UvO5rq-D_68dyQ-1" style="edgeStyle=orthogonalEdgeStyle;rounded=0;orthogonalLoop=1;jettySize=auto;html=1;exitX=0.55;exitY=0.95;exitDx=0;exitDy=0;exitPerimeter=0;entryX=0.75;entryY=0;entryDx=0;entryDy=0;" parent="1" source="CB3DuxHhB2KaNCTFFxKB-53" target="CB3DuxHhB2KaNCTFFxKB-55" edge="1">
          <mxGeometry relative="1" as="geometry" />
        </mxCell>
        <mxCell id="CB3DuxHhB2KaNCTFFxKB-53" value="&lt;div&gt;&lt;b&gt;Public API:&lt;/b&gt;&lt;/div&gt;&lt;div&gt;disease.sh&lt;/div&gt;" style="ellipse;shape=cloud;whiteSpace=wrap;html=1;" parent="1" vertex="1">
          <mxGeometry x="560" y="230" width="150" height="80" as="geometry" />
        </mxCell>
        <mxCell id="CB3DuxHhB2KaNCTFFxKB-55" value="services/covid.api.js" style="shape=module;align=left;spacingLeft=20;align=center;verticalAlign=top;whiteSpace=wrap;html=1;jettyWidth=20;jettyHeight=6;fillColor=#fff2cc;strokeColor=#d6b656;" parent="1" vertex="1">
          <mxGeometry x="540" y="330" width="140" height="30" as="geometry" />
        </mxCell>
        <mxCell id="VUbbE_UvO5rq-D_68dyQ-7" value="+ vue&lt;br&gt;+ vue-router&lt;br&gt;+ axios" style="text;strokeColor=none;fillColor=none;align=left;verticalAlign=top;spacingLeft=4;spacingRight=4;overflow=hidden;rotatable=0;points=[[0,0.5],[1,0.5]];portConstraint=eastwest;whiteSpace=wrap;html=1;" parent="1" vertex="1">
          <mxGeometry x="390" y="52" width="100" height="58" as="geometry" />
        </mxCell>
        <mxCell id="VUbbE_UvO5rq-D_68dyQ-8" value="+ date-fns" style="text;strokeColor=none;fillColor=none;align=left;verticalAlign=top;spacingLeft=4;spacingRight=4;overflow=hidden;rotatable=0;points=[[0,0.5],[1,0.5]];portConstraint=eastwest;whiteSpace=wrap;html=1;" parent="1" vertex="1">
          <mxGeometry x="550" y="304" width="100" height="26" as="geometry" />
        </mxCell>
      </root>
    </mxGraphModel>
  </diagram>
</mxfile>
